HIERARCHY
ROOT pelvis
{
  OFFSET 0 100 0
  CHANNELS 6 Xposition Yposition Zposition Zrotation Xrotation Yrotation
  JOINT pelvis_right_femur
  {
    OFFSET -10.78128 -3.44521 -0.5502486
    CHANNELS 3 Zrotation Xrotation Yrotation
    JOINT right_femur_tibia
    {
      OFFSET -0.8047443 -44.0398 -0.1307829
      CHANNELS 3 Zrotation Xrotation Yrotation
      JOINT right_tibia_foot
      {
        OFFSET 3.006224 -47.83518 -5
        CHANNELS 3 Zrotation Xrotation Yrotation
        End Site
        {
          OFFSET 0 -5 15
        }
      }
    }
  }
  JOINT pelvis_left_femur
  {
    OFFSET 10.78128 -3.44521 -0.5502486
    CHANNELS 3 Zrotation Xrotation Yrotation
    JOINT left_femur_tibia
    {
      OFFSET 0.8047443 -44.0398 -0.1307829
      CHANNELS 3 Zrotation Xrotation Yrotation
      JOINT left_tibia_foot
      {
        OFFSET -4.370144 -48.10324 -4.275266
        CHANNELS 3 Zrotation Xrotation Yrotation
        End Site
        {
          OFFSET 0 -5 15
        }
      }
    }
  }
  JOINT pelvis_spine1
  {
    OFFSET 0 6.468898 -3.129235
    CHANNELS 3 Zrotation Xrotation Yrotation
    JOINT spine1
    {
      OFFSET 0 23.15396 4.99043
      CHANNELS 3 Zrotation Xrotation Yrotation
      JOINT spine2
      {
        OFFSET 0 20.79997 -5.064912
        CHANNELS 3 Zrotation Xrotation Yrotation
        JOINT neck
        {
          OFFSET 0 14.38658 9.616178
          CHANNELS 3 Zrotation Xrotation Yrotation
          End Site
          {
            OFFSET 0 20 0
          }
        }
      }
      JOINT right_manubrium
      {
        OFFSET -5.722621 16.35077 3.967754
        CHANNELS 3 Zrotation Xrotation Yrotation
        JOINT right_clavicle
        {
          OFFSET -13.16364 1.694482 -4.693211
          CHANNELS 3 Zrotation Xrotation Yrotation
          JOINT right_humerus
          {
            OFFSET -28.5034 -0.3100689 -2.792744
            CHANNELS 3 Zrotation Xrotation Yrotation
            JOINT right_radius
            {
              OFFSET -25.15693 0.02248979 -1.271978
              CHANNELS 3 Zrotation Xrotation Yrotation
              End Site
              {
                OFFSET -15 0 0
              }
            }
          }
        }
      }
      JOINT left_manubrium
      {
        OFFSET 5.722621 16.35077 3.967754
        CHANNELS 3 Zrotation Xrotation Yrotation
        JOINT left_clavicle
        {
          OFFSET 13.16364 1.694482 -4.693211
          CHANNELS 3 Zrotation Xrotation Yrotation
          JOINT left_humerus
          {
            OFFSET 29.39168 -1.063119 -2.237045
            CHANNELS 3 Zrotation Xrotation Yrotation
            JOINT left_radius
            {
              OFFSET 24.59957 -0.9528479 0.9047498
              CHANNELS 3 Zrotation Xrotation Yrotation
              End Site
              {
                OFFSET 15 -0 -0
              }
            }
          }
        }
      }
    }
  }
}
MOTION
Frames: 15
Frame Time: 0.0416666666667
-1000.625 128.1556 -152.3485 8.109589 2.555426 114.1132 5.716446 14.54684 1.136318 -0 16.62471 -0 -8.720021 -12.0633 -1.353263 3.905077 -16.61597 -3.201441 -0 8.1443 -0 2.842486 -0.904013 14.8355 1.21464 -4.411885 7.617628 0.3506807 16.38493 -5.679375 0.7014653 18.61796 2.753232 0.8193559 -18.09913 4.0139 -0.0272859 -31.30827 13.18542 87.01358 16.74145 -8.91309 -0 0 29.72381 -24.42274 18.79295 17.05137 2.020137 -22.41969 -7.845422 -95.51373 10.72158 38.55724 0 0 -8.97855 4.273029 13.68648 8.584632
-995.8207 128.1062 -155.8875 8.133016 2.479389 113.5798 5.716446 14.54684 1.136318 -0 16.62471 -0 -8.720021 -12.0633 -1.353263 3.905077 -16.61597 -3.201441 -0 8.1443 -0 2.842486 -0.904013 14.8355 1.21464 -4.411885 7.617628 0.3506807 16.38493 -5.679375 0.7014653 18.61796 2.753232 0.8193559 -18.09913 4.0139 -0.0272859 -31.30827 13.18542 87.01358 16.74145 -8.91309 -0 0 29.72381 -24.42274 18.79295 17.05137 2.020137 -22.41969 -7.845422 -95.51373 10.72158 38.55724 0 0 -8.97855 4.273029 13.68648 8.584632
-990.9839 128.0568 -159.3812 8.155732 2.403137 113.0466 5.716446 14.54684 1.136318 -0 16.62471 -0 -8.720021 -12.0633 -1.353263 3.905077 -16.61597 -3.201441 -0 8.1443 -0 2.842486 -0.904013 14.8355 1.21464 -4.411885 7.617628 0.3506807 16.38493 -5.679375 0.7014653 18.61796 2.753232 0.8193559 -18.09913 4.0139 -0.0272859 -31.30827 13.18542 87.01358 16.74145 -8.91309 -0 0 29.72381 -24.42274 18.79295 17.05137 2.020137 -22.41969 -7.845422 -95.51373 10.72158 38.55724 0 0 -8.97855 4.273029 13.68648 8.584632
-986.1145 128.0075 -162.8293 8.177736 2.326678 112.5133 5.716446 14.54684 1.136318 -0 16.62471 -0 -8.720021 -12.0633 -1.353263 3.905077 -16.61597 -3.201441 -0 8.1443 -0 2.842486 -0.904013 14.8355 1.21464 -4.411885 7.617628 0.3506807 16.38493 -5.679375 0.7014653 18.61796 2.753232 0.8193559 -18.09913 4.0139 -0.0272859 -31.30827 13.18542 87.01358 16.74145 -8.91309 -0 0 29.72381 -24.42274 18.79295 17.05137 2.020137 -22.41969 -7.845422 -95.51373 10.72158 38.55724 0 0 -8.97855 4.273029 13.68648 8.584632
-981.2129 127.9581 -166.2315 8.199025 2.250017 111.9801 5.716446 14.54684 1.136318 -0 16.62471 -0 -8.720021 -12.0633 -1.353263 3.905077 -16.61597 -3.201441 -0 8.1443 -0 2.842486 -0.904013 14.8355 1.21464 -4.411885 7.617628 0.3506807 16.38493 -5.679375 0.7014653 18.61796 2.753232 0.8193559 -18.09913 4.0139 -0.0272859 -31.30827 13.18542 87.01358 16.74145 -8.91309 -0 0 29.72381 -24.42274 18.79295 17.05137 2.020137 -22.41969 -7.845422 -95.51373 10.72158 38.55724 0 0 -8.97855 4.273029 13.68648 8.584632
-976.2796 127.9087 -169.5875 8.219598 2.173161 111.447 5.716446 14.54684 1.136318 -0 16.62471 -0 -8.720021 -12.0633 -1.353263 3.905077 -16.61597 -3.201441 -0 8.1443 -0 2.842486 -0.904013 14.8355 1.21464 -4.411885 7.617628 0.3506807 16.38493 -5.679375 0.7014653 18.61796 2.753232 0.8193559 -18.09913 4.0139 -0.0272859 -31.30827 13.18542 87.01358 16.74145 -8.91309 -0 0 29.72381 -24.42274 18.79295 17.05137 2.020137 -22.41969 -7.845422 -95.51373 10.72158 38.55724 0 0 -8.97855 4.273029 13.68648 8.584632
-971.3149 127.8593 -172.897 8.239454 2.096117 110.914 5.716446 14.54684 1.136318 -0 16.62471 -0 -8.720021 -12.0633 -1.353263 3.905077 -16.61597 -3.201441 -0 8.1443 -0 2.842486 -0.904013 14.8355 1.21464 -4.411885 7.617628 0.3506807 16.38493 -5.679375 0.7014653 18.61796 2.753232 0.8193559 -18.09913 4.0139 -0.0272859 -31.30827 13.18542 87.01358 16.74145 -8.91309 -0 0 29.72381 -24.42274 18.79295 17.05137 2.020137 -22.41969 -7.845422 -95.51373 10.72158 38.55724 0 0 -8.97855 4.273029 13.68648 8.584632
-966.3194 127.8099 -176.1597 8.25859 2.018893 110.3809 5.716446 14.54684 1.136318 -0 16.62471 -0 -8.720021 -12.0633 -1.353263 3.905077 -16.61597 -3.201441 -0 8.1443 -0 2.842486 -0.904013 14.8355 1.21464 -4.411885 7.617628 0.3506807 16.38493 -5.679375 0.7014653 18.61796 2.753232 0.8193559 -18.09913 4.0139 -0.0272859 -31.30827 13.18542 87.01358 16.74145 -8.91309 -0 0 29.72381 -24.42274 18.79295 17.05137 2.020137 -22.41969 -7.845422 -95.51373 10.72158 38.55724 0 0 -8.97855 4.273029 13.68648 8.584632
-961.2935 127.7605 -179.3754 8.277007 1.941493 109.848 5.716446 14.54684 1.136318 -0 16.62471 -0 -8.720021 -12.0633 -1.353263 3.905077 -16.61597 -3.201441 -0 8.1443 -0 2.842486 -0.904013 14.8355 1.21464 -4.411885 7.617628 0.3506807 16.38493 -5.679375 0.7014653 18.61796 2.753232 0.8193559 -18.09913 4.0139 -0.0272859 -31.30827 13.18542 87.01358 16.74145 -8.91309 -0 0 29.72381 -24.42274 18.79295 17.05137 2.020137 -22.41969 -7.845422 -95.51373 10.72158 38.55724 0 0 -8.97855 4.273029 13.68648 8.584632
-956.2376 127.7111 -182.5437 8.294701 1.863926 109.3151 5.716446 14.54684 1.136318 -0 16.62471 -0 -8.720021 -12.0633 -1.353263 3.905077 -16.61597 -3.201441 -0 8.1443 -0 2.842486 -0.904013 14.8355 1.21464 -4.411885 7.617628 0.3506807 16.38493 -5.679375 0.7014653 18.61796 2.753232 0.8193559 -18.09913 4.0139 -0.0272859 -31.30827 13.18542 87.01358 16.74145 -8.91309 -0 0 29.72381 -24.42274 18.79295 17.05137 2.020137 -22.41969 -7.845422 -95.51373 10.72158 38.55724 0 0 -8.97855 4.273029 13.68648 8.584632
-951.1521 127.6617 -185.6644 8.311672 1.786198 108.7822 5.716446 14.54684 1.136318 -0 16.62471 -0 -8.720021 -12.0633 -1.353263 3.905077 -16.61597 -3.201441 -0 8.1443 -0 2.842486 -0.904013 14.8355 1.21464 -4.411885 7.617628 0.3506807 16.38493 -5.679375 0.7014653 18.61796 2.753232 0.8193559 -18.09913 4.0139 -0.0272859 -31.30827 13.18542 87.01358 16.74145 -8.91309 -0 0 29.72381 -24.42274 18.79295 17.05137 2.020137 -22.41969 -7.845422 -95.51373 10.72158 38.55724 0 0 -8.97855 4.273029 13.68648 8.584632
-946.0375 127.6124 -188.7371 8.327918 1.708315 108.2494 5.716446 14.54684 1.136318 -0 16.62471 -0 -8.720021 -12.0633 -1.353263 3.905077 -16.61597 -3.201441 -0 8.1443 -0 2.842486 -0.904013 14.8355 1.21464 -4.411885 7.617628 0.3506807 16.38493 -5.679375 0.7014653 18.61796 2.753232 0.8193559 -18.09913 4.0139 -0.0272859 -31.30827 13.18542 87.01358 16.74145 -8.91309 -0 0 29.72381 -24.42274 18.79295 17.05137 2.020137 -22.41969 -7.845422 -95.51373 10.72158 38.55724 0 0 -8.97855 4.273029 13.68648 8.584632
-940.8943 127.563 -191.7617 8.343438 1.630285 107.7166 5.716446 14.54684 1.136318 -0 16.62471 -0 -8.720021 -12.0633 -1.353263 3.905077 -16.61597 -3.201441 -0 8.1443 -0 2.842486 -0.904013 14.8355 1.21464 -4.411885 7.617628 0.3506807 16.38493 -5.679375 0.7014653 18.61796 2.753232 0.8193559 -18.09913 4.0139 -0.0272859 -31.30827 13.18542 87.01358 16.74145 -8.91309 -0 0 29.72381 -24.42274 18.79295 17.05137 2.020137 -22.41969 -7.845422 -95.51373 10.72158 38.55724 0 0 -8.97855 4.273029 13.68648 8.584632
-935.7229 127.5136 -194.7379 8.358231 1.552113 107.1839 5.716446 14.54684 1.136318 -0 16.62471 -0 -8.720021 -12.0633 -1.353263 3.905077 -16.61597 -3.201441 -0 8.1443 -0 2.842486 -0.904013 14.8355 1.21464 -4.411885 7.617628 0.3506807 16.38493 -5.679375 0.7014653 18.61796 2.753232 0.8193559 -18.09913 4.0139 -0.0272859 -31.30827 13.18542 87.01358 16.74145 -8.91309 -0 0 29.72381 -24.42274 18.79295 17.05137 2.020137 -22.41969 -7.845422 -95.51373 10.72158 38.55724 0 0 -8.97855 4.273029 13.68648 8.584632
-930.5238 127.4642 -197.6653 8.372296 1.473808 106.6512 5.716446 14.54684 1.136318 -0 16.62471 -0 -8.720021 -12.0633 -1.353263 3.905077 -16.61597 -3.201441 -0 8.1443 -0 2.842486 -0.904013 14.8355 1.21464 -4.411885 7.617628 0.3506807 16.38493 -5.679375 0.7014653 18.61796 2.753232 0.8193559 -18.09913 4.0139 -0.0272859 -31.30827 13.18542 87.01358 16.74145 -8.91309 -0 0 29.72381 -24.42274 18.79295 17.05137 2.020137 -22.41969 -7.845422 -95.51373 10.72158 38.55724 0 0 -8.97855 4.273029 13.68648 8.584632
